<?xml version="1.0" encoding="UTF-8"?>
<svg width="1301.87px" height="1244.3197px" viewBox="0 0 1301.87 1244.3197" version="1.1" xmlns="http://www.w3.org/2000/svg" xmlns:xlink="http://www.w3.org/1999/xlink">
    <title>cobrc-logo-green</title>
    <defs>
        <path d="M85.876,4.39169865 L85.9176399,4.43322356 L86.1652324,4.68116679 C86.8345164,5.35306909 88.0218984,6.55541634 89.244687,7.79588855 L89.8567971,8.41702248 C91.5113025,10.0963518 93.0831291,11.6950468 93.3718588,11.9887443 L93.4136527,12.0312588 C193.988,122.460699 244.267,223.782699 244.267,223.782699 L244.243213,223.805919 C243.935157,224.106649 240.681752,227.283079 237.218399,230.680451 L236.670208,231.218327 C234.290609,233.553726 231.880122,235.927147 230.31492,237.488247 L229.978843,237.823968 C229.55056,238.252539 229.2035,238.602999 228.961,238.852699 C226.898,240.957699 222.675,239.304699 222.675,239.304699 C171.19,223.953699 145.146,239.500699 140,240.957699 C134.845,242.423699 132.218,241.344699 130.178,239.885699 C129.48425,239.388312 128.541908,238.575159 127.601094,237.71934 L127.225444,237.375384 C125.790307,236.053127 124.437174,234.716171 124.067745,234.349057 L122.836426,233.117796 C109.960255,220.233073 91.8457852,201.945763 72.9483891,182.779347 L71.2541106,181.060722 C70.1233543,179.913566 68.9902815,178.763757 67.8558402,177.612259 L65.2492766,174.965977 C43.9496515,153.337485 22.42427,131.374259 6.929,115.427699 C69.074,141.989699 206.538,203.561699 229.496,237.967699 L243.971,223.485699 C243.971,223.485699 105.325,91.4206986 0,60.8266986 C7.53406,54.5635586 17.4557224,46.3162602 27.4817392,37.9863703 L30.1365537,35.7807766 L31.2507657,34.8551622 C31.4363622,34.7009839 31.6218964,34.546859 31.8073537,34.3927997 L32.919058,33.469327 C50.5027492,18.8631943 67.1300625,5.06694665 70.347,2.45269865 C77.631,-3.47830135 84.523,3.03869865 85.876,4.39169865 Z" id="path-1"></path>
        <path d="M237.46,0 C205.87,32.514 149.01,90.235 120.3,118.944 L120.201119,119.042358 C119.847276,119.393511 118.592297,120.632005 117.227431,121.896215 L116.853065,122.240989 C115.850661,123.158636 114.828182,124.048455 114.09,124.579 C112.04,126.038 109.43,127.117 104.28,125.651 C99.14,124.194 73.1,108.647 21.59,123.998 C21.59,123.998 17.37,125.651 15.32,123.546 C15.13775,123.358725 14.8966625,123.114772 14.6065883,122.823698 L13.964043,122.181549 C12.5599961,120.782916 10.4772367,118.732244 8.34621484,116.641057 L7.81281875,116.11777 C3.899225,112.279332 0,108.476 0,108.476 L0.0162962963,108.443 C0.0377777778,108.399 0.08,108.311 0.14,108.179 L14.62,122.661 C37.62,88.199 175.46,26.488 237.46,0 Z" id="path-3"></path>
        <path d="M173.79,2.45269865 C179.15,6.81569865 221.92,42.3586986 244.09,60.7916986 C138.75,91.3116986 0.03,223.465699 0,223.485699 C3.06,217.404699 53.3,118.989699 150.71,12.0366986 L150.757186,11.9887443 C151.046183,11.6950468 152.619403,10.0963518 154.274132,8.41702248 L154.886267,7.79588855 C156.237689,6.42484031 157.544892,5.1003658 158.1549,4.48719386 L158.355781,4.28651119 C159.928328,2.735422 166.66381,-3.33708707 173.79,2.45269865 Z" id="path-5"></path>
        <path d="M16.143,0 L272.873,256.744 L256.733,272.864 L1.13686838e-13,16.138 C5.508,10.886 10.89,5.508 16.143,0 Z" id="path-7"></path>
        <path d="M14.47,0 L41.585,24.964 L89.539,72.904 C84.03,78.159 78.645,83.544 73.392,89.056 L25.442,41.106 L25.461,41.088 L-2.84217094e-14,14.486 L14.47,0 Z" id="path-9"></path>
        <path d="M254.354,0 C259.643,5.47 265.063,10.811 270.609,16.026 L16.152,270.478 L7.10542736e-15,254.358 L254.354,0 Z" id="path-11"></path>
        <path d="M77.391,0 L91.861,14.486 L66.411,41.09 L66.431,41.106 L16.036,91.497 C10.821,85.95 5.475,80.529 1.13686838e-13,75.234 L49.841,25.397 L50.141,25.089 L50.281,24.957 L77.391,0 Z" id="path-13"></path>
        <path d="M42.799,2.27373675e-13 C47.172,2.27373675e-13 51.155,0.537 54.75,1.612 C58.344,2.686 61.383,3.891 63.865,5.224 L67.312,2.167 L72.147,2.167 L72.648,30.959 L67.756,30.959 C64.982,22.159 61.649,15.697 57.763,11.575 C53.877,7.453 49.14,5.391 43.552,5.391 C36.592,5.391 31.3,8.462 27.674,14.604 C24.047,20.746 22.234,29.366 22.234,40.464 C22.234,46.736 22.852,52.091 24.093,56.528 C25.332,60.961 26.951,64.532 28.952,67.241 C31.099,70.063 33.633,72.133 36.558,73.448 C39.483,74.768 42.72,75.426 46.273,75.426 C51.456,75.426 56.072,74.018 60.125,71.202 C64.178,68.386 67.872,64.124 71.202,58.418 L75.982,61.308 C74.389,64.569 72.574,67.487 70.535,70.063 C68.497,72.638 66.144,74.852 63.476,76.704 C60.549,78.742 57.316,80.336 53.777,81.485 C50.238,82.633 46.06,83.207 41.243,83.207 C35.462,83.207 30.052,82.272 25.013,80.396 C19.973,78.525 15.582,75.806 11.84,72.244 C8.171,68.756 5.281,64.444 3.169,59.303 C1.056,54.166 -5.68434189e-14,48.515 -5.68434189e-14,42.354 C-5.68434189e-14,36.23 1.066,30.566 3.196,25.35 C5.327,20.14 8.319,15.623 12.173,11.797 C15.953,8.05 20.492,5.15 25.791,3.089 C31.09,1.028 36.759,2.27373675e-13 42.799,2.27373675e-13 Z" id="path-15"></path>
        <path d="M43.744,0 L43.744,4.336 C43.0774,4.4026 42.31036,4.48576 41.443312,4.585696 L40.542944,4.691232 C40.23172,4.72828 39.9094,4.7672 39.576,4.808 C37.908,5.012 36.5,5.299 35.351,5.67 C33.906,6.152 32.943,6.902 32.461,7.921 C31.979,8.94 31.739,10.098 31.739,11.395 L31.739,67.256 C31.739,68.59 31.989,69.73 32.489,70.675 C32.989,71.619 33.943,72.388 35.351,72.981 C36.129,73.314 37.417,73.639 39.214,73.954 C41.011,74.269 42.522,74.463 43.744,74.537 L43.744,78.873 L-5.68434189e-14,78.873 L-5.68434189e-14,74.537 C1.001,74.463 2.474,74.352 4.419,74.204 C6.364,74.056 7.708,73.833 8.449,73.537 C9.82,72.981 10.756,72.249 11.256,71.341 C11.756,70.434 12.006,69.276 12.006,67.868 L12.006,11.951 C12.006,10.691 11.765,9.579 11.284,8.616 C10.802,7.652 9.857,6.874 8.449,6.281 C7.56,5.911 6.244,5.531 4.503,5.142 C2.761,4.753 1.26,4.484 -5.68434189e-14,4.336 L-5.68434189e-14,0 L43.744,0 Z" id="path-17"></path>
        <path d="M76.427,0 L76.427,22.567 L72.092,22.567 C70.946,19.195 69.107,15.582 66.575,11.729 C64.042,7.875 61.702,5.8 59.558,5.503 C58.377,5.355 56.916,5.225 55.178,5.114 C53.439,5.003 51.943,4.948 50.686,4.948 L48.08,4.948 L48.08,66.811 C48.08,68.146 48.321,69.322 48.803,70.341 C49.284,71.36 50.229,72.166 51.638,72.759 C52.489,73.092 53.814,73.435 55.611,73.787 C57.409,74.139 58.937,74.389 60.197,74.537 L60.197,78.873 L16.231,78.873 L16.231,74.537 C17.306,74.426 18.815,74.269 20.761,74.065 C22.706,73.861 24.031,73.611 24.735,73.314 C26.18,72.722 27.144,71.925 27.626,70.925 C28.107,69.924 28.348,68.739 28.348,67.367 L28.348,4.948 L25.743,4.948 C24.485,4.948 22.986,5.003 21.25,5.114 C19.513,5.225 18.051,5.355 16.87,5.503 C14.723,5.8 12.386,7.875 9.853,11.729 C7.321,15.582 5.482,19.195 4.336,22.567 L1.13686838e-13,22.567 L1.13686838e-13,0 L76.427,0 Z" id="path-19"></path>
        <path d="M45.19,0 L45.19,4.336 C41.053,4.447 38.262,4.734 36.822,5.198 C35.379,5.661 34.659,6.3 34.659,7.115 C34.659,7.522 34.927,8.338 35.465,9.561 C36,10.783 36.956,12.674 38.325,15.226 C39.585,17.634 41.426,20.946 43.851,25.166 C46.278,29.385 49.194,34.328 52.603,39.992 C59.632,28.848 64.459,21.066 67.085,16.643 C69.711,12.22 71.026,9.505 71.026,8.505 C71.026,7.245 70.253,6.281 68.706,5.614 C67.163,4.948 64.658,4.521 61.198,4.336 L61.198,0 L90.434,0 L90.434,4.336 C89.105,4.484 87.882,4.725 86.771,5.058 C85.659,5.392 84.607,5.855 83.612,6.448 C82.018,7.338 80.601,8.477 79.364,9.866 C78.122,11.256 76.913,12.803 75.728,14.508 C73.319,18.028 70.8,21.854 68.15,25.985 C65.51,30.117 62.629,34.666 59.525,39.631 C57.487,42.781 56.237,45.199 55.773,46.885 C55.315,48.571 55.083,51.489 55.083,55.639 L55.083,66.811 C55.083,68.146 55.333,69.313 55.834,70.313 C56.334,71.314 57.288,72.129 58.696,72.759 C59.326,73.018 60.66,73.361 62.698,73.787 C64.736,74.213 66.237,74.463 67.2,74.537 L67.2,78.873 L23.234,78.873 L23.234,74.537 C24.272,74.463 25.763,74.315 27.708,74.093 C29.654,73.87 31.016,73.611 31.794,73.314 C33.165,72.722 34.101,71.934 34.601,70.953 C35.101,69.971 35.351,68.775 35.351,67.367 L35.351,53.471 C35.351,52.249 35.333,51.174 35.295,50.247 C35.259,49.321 35.129,48.543 34.907,47.913 C34.647,47.209 34.203,46.311 33.573,45.218 C32.943,44.124 32.128,42.707 31.127,40.965 C28.274,35.963 25.513,31.219 22.845,26.736 C20.177,22.252 17.639,18.047 15.23,14.119 C13.97,12.081 12.701,10.441 11.423,9.2 C10.144,7.958 8.838,6.948 7.504,6.17 C6.503,5.614 5.29,5.188 3.863,4.892 C2.437,4.595 1.149,4.41 0,4.336 L0,0 L45.19,0 Z" id="path-21"></path>
        <path d="M42.744,2.27373675e-13 C48.636,2.27373675e-13 54.166,0.963 59.336,2.89 C64.505,4.817 68.979,7.503 72.759,10.95 C76.65,14.507 79.735,18.805 82.013,23.845 C84.292,28.884 85.432,34.628 85.432,41.076 C85.432,46.82 84.468,52.285 82.542,57.473 C80.615,62.661 77.836,67.126 74.204,70.868 C70.388,74.759 65.904,77.789 60.753,79.956 C55.602,82.124 49.47,83.207 42.355,83.207 C36.611,83.207 31.182,82.263 26.069,80.373 C20.955,78.483 16.453,75.741 12.562,72.147 C8.709,68.626 5.651,64.347 3.391,59.307 C1.131,54.268 0,48.654 0,42.465 C0,36.018 1.103,30.172 3.308,24.929 C5.512,19.686 8.542,15.192 12.395,11.45 C16.212,7.781 20.742,4.956 25.985,2.973 C31.229,0.991 36.815,2.27373675e-13 42.744,2.27373675e-13 Z M42.744,5.391 C36.037,5.391 30.942,8.574 27.459,14.938 C23.975,21.302 22.234,30.293 22.234,41.909 C22.234,46.847 22.614,51.507 23.373,55.884 C24.133,60.261 25.328,64.087 26.958,67.353 C28.626,70.655 30.738,73.221 33.295,75.06 C35.852,76.899 39.001,77.816 42.744,77.816 C46.413,77.816 49.562,76.89 52.193,75.032 C54.824,73.18 56.918,70.636 58.474,67.408 C60.142,64.032 61.346,60.205 62.087,55.939 C62.828,51.674 63.198,46.847 63.198,41.465 C63.198,36.898 62.874,32.455 62.226,28.134 C61.577,23.808 60.475,19.959 58.919,16.582 C57.326,13.205 55.213,10.496 52.582,8.453 C49.951,6.41 46.672,5.391 42.744,5.391 Z" id="path-23"></path>
        <path d="M70.868,0 L70.868,21.066 L66.533,21.066 C65.458,18 63.569,14.744 60.845,11.289 C58.131,7.837 55.546,5.943 53.105,5.614 C51.998,5.466 50.516,5.336 48.663,5.225 C46.815,5.114 45.115,5.058 43.558,5.058 L31.293,5.058 L31.293,35.963 L39.13,35.963 C41.354,35.963 43.28,35.713 44.911,35.212 C46.541,34.712 47.987,33.813 49.246,32.517 C50.173,31.59 51.071,30.043 51.942,27.876 C52.813,25.708 53.341,23.845 53.527,22.289 L57.751,22.289 L57.751,55.472 L53.527,55.472 C53.378,53.805 52.804,51.776 51.803,49.386 C50.803,46.996 49.951,45.412 49.246,44.634 C48.172,43.448 46.801,42.568 45.133,41.993 C43.466,41.419 41.465,41.132 39.13,41.132 L31.293,41.132 L31.293,67.256 C31.293,68.59 31.543,69.73 32.044,70.675 C32.543,71.619 33.498,72.388 34.906,72.981 C35.721,73.314 36.842,73.62 38.269,73.898 C39.695,74.176 41.113,74.389 42.521,74.537 L42.521,78.873 L-1.13686838e-13,78.873 L-1.13686838e-13,74.537 C1.074,74.426 2.501,74.269 4.28,74.065 C6.058,73.861 7.3,73.611 8.004,73.314 C9.338,72.796 10.264,72.073 10.783,71.147 C11.301,70.221 11.561,69.035 11.561,67.59 L11.561,11.951 C11.561,10.691 11.329,9.589 10.866,8.644 C10.403,7.698 9.449,6.911 8.004,6.281 C6.966,5.837 5.595,5.429 3.89,5.058 C2.186,4.688 0.889,4.447 -1.13686838e-13,4.336 L-1.13686838e-13,0 L70.868,0 Z" id="path-25"></path>
        <path d="M76.077,4.79828152 C78.62,6.95328152 80.42,9.36228152 81.476,12.0192815 C82.532,14.6772815 82.956,17.5582815 82.75,20.6642815 C82.59,23.5032815 81.967,26.5282815 80.883,29.7402815 C79.797,32.9502815 78.405,36.2042815 76.703,39.4982815 L77.71,40.3522815 C80.332,37.8372815 83.368,35.4932815 86.819,33.3182815 C90.274,31.1462815 93.67,29.5952815 97.012,28.6642815 C100.483,27.7232815 103.994,27.5402815 107.54,28.1212815 C111.088,28.7032815 114.45,30.3402815 117.631,33.0362815 C121.445,36.2742815 123.986,39.8132815 125.255,43.6502815 C126.522,47.4902815 126.642,51.5572815 125.614,55.8462815 C124.541,60.4042815 122.58,65.0432815 119.729,69.7602815 C116.88,74.4802815 113.073,79.6472815 108.306,85.2632815 L75.179,124.311282 L71.047,120.804282 C71.869,119.619282 72.879,118.106282 74.076,116.267282 C75.272,114.426282 76.015,113.053282 76.302,112.140282 C76.879,110.385282 76.939,108.900282 76.478,107.689282 C76.017,106.480282 75.098,105.290282 73.722,104.120282 L20.742,59.1692815 C19.47,58.0932815 18.245,57.3862815 17.069,57.0552815 C15.89,56.7262815 14.354,57.0322815 12.46,57.9772815 C11.073,58.6832815 9.614,59.6302815 8.085,60.8232815 C6.557,62.0182815 5.239,63.0882815 4.134,64.0302815 L0,60.5272815 L34.659,19.6782815 C43.378,9.39928152 51.084,3.18328152 57.774,1.02328152 C64.468,-1.13571848 70.568,0.121281515 76.077,4.79828152 Z M83.166,47.8982815 C77.736,48.6342815 72.546,51.9162815 67.601,57.7432815 C67.031,58.4152815 66.302,59.3292815 65.41,60.4872815 C64.521,61.6432815 63.868,62.5022815 63.453,63.0622815 L90.994,86.4312815 C92.574,87.2232815 94.517,87.1722815 96.828,86.2782815 C99.14,85.3842815 101.298,83.7512815 103.306,81.3842815 C106.873,77.1832815 108.358,72.5652815 107.76,67.5322815 C107.16,62.5002815 104.297,57.8082815 99.168,53.4542815 C93.934,49.0142815 88.598,47.1612815 83.166,47.8982815 Z M47.179,21.7832815 C42.855,22.1532815 38.7,24.6872815 34.714,29.3842815 C34.145,30.0552815 33.429,30.9522815 32.57,32.0752815 C31.708,33.1982815 30.965,34.1622815 30.342,34.9682815 L58.207,58.6112815 L60.547,55.8582815 C65.401,50.1352815 67.647,44.7852815 67.288,39.8012815 C66.929,34.8192815 64.472,30.3962815 59.917,26.5302815 C55.748,22.9942815 51.503,21.4122815 47.179,21.7832815 Z" id="path-27"></path>
        <path d="M74.741,4.97379915e-14 C82.233,0.0535662718 87.977,3.44356627 91.974,10.1735663 C95.496,16.1075663 96.627,21.8875663 95.36,27.5135663 C94.095,33.1415663 90.58,39.0405663 84.818,45.2075663 C89.607,47.1065663 95.175,49.2955663 101.523,51.7735663 C107.871,54.2535663 114.425,56.7455663 121.19,59.2445663 C123.346,60.0665663 126.16,60.9695663 129.627,61.9535663 C133.092,62.9385663 135.797,63.2075663 137.738,62.7535663 C138.819,62.4885663 140.125,62.0355663 141.659,61.3965663 C143.189,60.7565663 144.266,60.2775663 144.887,59.9625663 L147.654,64.6215663 L115.122,83.9375663 C104.404,78.6665663 95.671,74.5875663 88.922,71.6995663 C82.175,68.8095663 74.049,65.6625663 64.544,62.2555663 L61.266,64.2005663 L76.557,89.9495663 C77.407,91.3825663 78.398,92.4395663 79.526,93.1155663 C80.656,93.7915663 82.177,94.0185663 84.093,93.7965663 C85.038,93.6665663 86.418,93.2915663 88.234,92.6735663 C90.047,92.0525663 91.566,91.4595663 92.794,90.8945663 L95.559,95.5545663 L50.335,122.405566 L47.568,117.745566 C48.652,116.939566 50.076,115.867566 51.836,114.524566 C53.599,113.183566 54.782,112.115566 55.391,111.323566 C56.526,109.788566 57.063,108.379566 57.001,107.094566 C56.938,105.811566 56.459,104.415566 55.56,102.900566 L20.054,43.0995663 C19.202,41.6635663 18.273,40.6005663 17.268,39.9035663 C16.261,39.2085663 14.711,38.9985663 12.61,39.2765663 C11.029,39.5145663 9.266,39.9685663 7.321,40.6375663 C5.376,41.3095663 3.856,41.8605663 2.768,42.2915663 L0,37.6315663 L47.554,9.39756627 C58.189,3.08256627 67.251,-0.0484337282 74.741,4.97379915e-14 Z M41.583,20.2965663 L36.863,23.0985663 L57.934,58.5845663 L62.473,55.8885663 C68.328,52.4125663 71.959,48.1835663 73.363,43.2015663 C74.769,38.2195663 73.497,32.4025663 69.548,25.7505663 C66.19,20.0955663 62.154,16.9035663 57.438,16.1745663 C52.723,15.4475663 47.438,16.8205663 41.583,20.2965663 Z" id="path-29"></path>
        <path d="M53.209,0 L54.457,5.273 C53.137,5.73 51.493,6.322 49.522,7.05 C47.553,7.779 45.923,8.534 44.633,9.315 C43.014,10.318 42.058,11.508 41.765,12.886 C41.471,14.264 41.513,15.742 41.886,17.319 L57.977,85.267 C58.362,86.888 58.994,88.204 59.874,89.209 C60.757,90.214 62.137,90.874 64.022,91.189 C65.064,91.372 66.723,91.395 69.001,91.261 C71.278,91.126 73.17,90.927 74.678,90.665 L75.929,95.939 L22.719,108.538 L21.471,103.264 C22.666,102.887 24.426,102.329 26.749,101.588 C29.074,100.846 30.642,100.189 31.46,99.615 C32.965,98.545 33.894,97.384 34.241,96.136 C34.589,94.888 34.558,93.408 34.153,91.694 L18.046,23.678 C17.684,22.147 17.068,20.864 16.207,19.832 C15.342,18.799 13.969,18.125 12.086,17.807 C10.898,17.613 9.187,17.529 6.957,17.56 C4.727,17.587 2.823,17.694 1.248,17.875 L0,12.601 L53.209,0 Z" id="path-31"></path>
        <path d="M41.839,0.0258912383 C47.3,0.192891238 52.395,1.11189124 57.115,2.78389124 C61.835,4.45889124 65.54,6.10089124 68.227,7.71089124 L72.59,3.67389124 L78.63,3.85689124 L78.162,37.4868912 L72.192,37.3038912 C70.913,33.6418912 69.394,29.8928912 67.634,26.0528912 C65.874,22.2128912 63.989,19.0098912 61.983,16.4388912 C59.797,13.6788912 57.245,11.4528912 54.331,9.75989124 C51.418,8.06889124 47.967,7.16389124 43.988,7.04089124 C38.988,6.88989124 34.858,8.18089124 31.6,10.9108912 C28.343,13.6438912 26.651,17.0968912 26.523,21.2698912 C26.402,25.2118912 27.681,28.4778912 30.361,31.0648912 C33.038,33.6538912 37.267,35.9878912 43.043,38.0658912 C46.431,39.3298912 49.894,40.5948912 53.423,41.8618912 C56.953,43.1308912 60.088,44.3398912 62.835,45.4908912 C69.468,48.2908912 74.462,52.0288912 77.82,56.7028912 C81.178,61.3738912 82.753,67.0938912 82.549,73.8638912 C82.414,78.1278912 81.293,82.2238912 79.181,86.1498912 C77.069,90.0778912 74.286,93.3108912 70.821,95.8488912 C67.032,98.6588912 62.678,100.774891 57.768,102.201891 C52.858,103.630891 47.165,104.246891 40.683,104.047891 C34.664,103.864891 29.073,102.940891 23.911,101.277891 C18.749,99.6148912 14.392,97.7108912 10.844,95.5618912 L5.904,100.276891 L0,100.096891 L0.184,64.4448912 L6.157,64.6248912 C7.395,68.0548912 9.001,71.6798912 10.969,75.5008912 C12.938,79.3218912 15.242,82.7618912 17.882,85.8138912 C20.613,89.0078912 23.695,91.6338912 27.132,93.6878912 C30.567,95.7448912 34.622,96.8428912 39.3,96.9858912 C45.595,97.1788912 50.468,95.7838912 53.923,92.8058912 C57.37,89.8258912 59.167,85.9968912 59.31,81.3158912 C59.426,77.4698912 58.102,74.1948912 55.332,71.4898912 C52.566,68.7868912 48.226,66.3898912 42.311,64.2988912 C38.462,62.9278912 34.921,61.6558912 31.688,60.4868912 C28.457,59.3168912 25.423,58.1308912 22.586,56.9268912 C16.046,54.0828912 11.243,50.1548912 8.174,45.1428912 C5.105,40.1318912 3.665,34.5898912 3.85,28.5168912 C3.968,24.6678912 4.913,20.9968912 6.689,17.5018912 C8.463,14.0048912 10.992,10.8928912 14.272,8.16189124 C17.408,5.61489124 21.386,3.57889124 26.206,2.05489124 C31.026,0.530891238 36.236,-0.145108762 41.839,0.0258912383 Z" id="path-33"></path>
        <path d="M9.829,0 L101.073,28.301 L92.717,55.245 L87.544,53.638 C87.423,49.189 86.562,44.195 84.968,38.656 C83.375,33.116 81.346,29.774 78.9,28.625 C77.538,28.011 75.843,27.314 73.815,26.539 C71.777,25.763 70.012,25.14 68.511,24.676 L65.398,23.711 L42.489,97.569 C41.993,99.16 41.845,100.656 42.044,102.051 C42.243,103.445 43.072,104.758 44.531,105.986 C45.43,106.701 46.884,107.6 48.895,108.686 C50.914,109.772 52.647,110.636 54.092,111.28 L52.489,116.456 L0,100.175 L1.603,94.999 C2.48633333,95.1743333 3.60788889,95.3985556 4.96855556,95.6698889 L5.813656,95.838328 C6.25056,95.92536 6.709,96.0166 7.189,96.112 C9.588,96.589 11.255,96.782 12.21,96.687 C14.155,96.515 15.6,95.92 16.545,94.903 C17.49,93.889 18.217,92.562 18.722,90.925 L41.84,16.404 L38.732,15.438 C37.232,14.972 35.42,14.484 33.304,13.974 C31.191,13.462 29.399,13.078 27.93,12.816 C25.262,12.376 21.701,13.986 17.249,17.65 C12.798,21.314 9.264,24.945 6.651,28.546 L1.473,26.941 L9.829,0 Z" id="path-35"></path>
        <path d="M63.7784147,1.4689786 C70.5874147,3.1059786 77.0534147,6.0099786 83.1864147,10.1809786 C89.2724147,14.3239786 94.3124147,19.2089786 98.2954147,24.8339786 C102.279415,30.4619786 105.021415,36.3839786 106.503415,42.6049786 C108.022415,49.0179786 108.180415,55.6299786 106.994415,62.4379786 C105.808415,69.2499786 102.945415,75.9869786 98.4064147,82.6499786 C94.3684147,88.5859786 89.5324147,93.5559786 83.8904147,97.5599786 C78.2484147,101.566979 72.2364147,104.227979 65.8534147,105.540979 C59.1744147,106.876979 52.4114147,106.853979 45.5654147,105.473979 C38.7194147,104.090979 31.6144147,100.896979 24.2684147,95.8949786 C18.3294147,91.8559786 13.3824147,87.0619786 9.42741466,81.5129786 C5.47141466,75.9639786 2.74741466,69.9629786 1.25641466,63.5129786 C-0.253585337,57.1629786 -0.401585337,50.5899786 0.807414663,43.7929786 C2.01641466,36.9979786 4.79541466,30.3999786 9.14941466,24.0049786 C13.6794147,17.3419786 18.9324147,12.0759786 24.8984147,8.2079786 C30.8644147,4.3399786 37.1544147,1.8269786 43.7684147,0.668978596 C50.2904147,-0.438021404 56.9604147,-0.171021404 63.7784147,1.4689786 Z M56.8864147,14.8689786 C48.8084147,18.9959786 40.6834147,27.0619786 32.5124147,39.0679786 C29.0434147,44.1679786 26.1584147,49.2489786 23.8654147,54.3069786 C21.5724147,59.3679786 20.1184147,64.1589786 19.5064147,68.6799786 C18.9044147,73.2659786 19.2844147,77.4069786 20.6324147,81.1029786 C21.9794147,84.8019786 24.5924147,87.9629786 28.4554147,90.5959786 C32.2494147,93.1759786 36.1534147,94.4319786 40.1834147,94.3639786 C44.2044147,94.2969786 48.1594147,93.1439786 52.0324147,90.9019786 C56.1354147,88.5839786 60.0634147,85.4799786 63.8344147,81.5919786 C67.6044147,77.7029786 71.3744147,72.9759786 75.1634147,67.4159786 C78.3694147,62.6979786 81.1574147,57.8759786 83.5294147,52.9549786 C85.9004147,48.0289786 87.4754147,43.2759786 88.2354147,38.6909786 C88.9674147,34.0789786 88.6894147,29.7949786 87.4014147,25.8349786 C86.1234147,21.8739786 83.4554147,18.5139786 79.3874147,15.7509786 C72.4584147,11.0349786 64.9554147,10.7409786 56.8864147,14.8689786 Z" id="path-37"></path>
        <path d="M76.742,0 L110.722,42.127 L106.506,45.53 C105.46,44.462 104.209,43.225 102.745,41.817 C101.281,40.409 99.911,39.274 98.613,38.41 C97.011,37.382 95.528,37.032 94.158,37.364 C92.786,37.695 91.471,38.371 90.211,39.387 L39.76,80.086 C37.379,82.006 35.628,83.68 34.526,85.11 C33.414,86.539 32.914,87.983 33.025,89.445 C33.09,90.934 33.702,92.599 34.859,94.433 C36.018,96.27 37.787,98.667 40.168,101.622 C42.493,104.508 44.93,107.172 47.468,109.619 C50.006,112.065 52.331,113.418 54.443,113.675 C57.76,114.031 61.873,113.828 66.764,113.068 C71.646,112.306 75.945,111.382 79.659,110.298 L82.837,114.244 L57.009,132.578 L0,61.896 L4.215,58.495 C5.345,59.668 6.707,61.009 8.31,62.515 C9.912,64.02 11.042,64.956 11.691,65.322 C13.238,66.213 14.674,66.547 15.98,66.324 C17.286,66.102 18.648,65.424 20.056,64.291 L74.185,20.626 C75.482,19.579 76.399,18.516 76.927,17.434 C77.445,16.355 77.445,14.783 76.908,12.715 C76.51,11.191 75.834,9.521 74.879,7.705 C73.916,5.889 73.129,4.456 72.517,3.402 L76.742,0 Z" id="path-39"></path>
        <path d="M98.384,0 L101.969,55.189 C102.771,67.529 101.448,77.029 98.007,83.68 C94.563,90.332 88.935,93.912 81.124,94.417 C74.236,94.866 68.573,93.25 64.133,89.572 C59.694,85.89 56.032,80.081 53.149,72.147 C49.286,75.556 44.809,79.521 39.719,84.051 C34.628,88.586 29.433,93.296 24.137,98.187 C22.428,99.739 20.345,101.837 17.895,104.478 C15.445,107.123 13.979,109.411 13.502,111.342 C13.247,112.426 13.06,113.797 12.934,115.455 C12.809,117.109 12.747,118.285 12.747,118.985 L7.336,119.337 L4.884,81.578 C14.447,74.416 22.043,68.488 27.68,63.781 C33.315,59.085 39.809,53.267 47.155,46.347 L46.91,42.539 L17.027,44.485 C15.364,44.591 13.972,44.995 12.858,45.694 C11.744,46.393 10.85,47.644 10.179,49.455 C9.866,50.358 9.574,51.757 9.303,53.656 C9.03,55.555 8.87,57.176 8.819,58.524 L3.411,58.876 L2.84217094e-14,6.392 L5.407,6.04 C5.635,7.371 5.945,9.125 6.343,11.306 C6.739,13.483 7.152,15.026 7.582,15.925 C8.435,17.633 9.447,18.75 10.621,19.278 C11.79,19.806 13.254,20.01 15.012,19.899 L84.414,15.387 C86.077,15.28 87.448,14.933 88.525,14.359 C89.6,13.775 90.492,12.488 91.198,10.491 C91.701,8.976 92.097,7.195 92.384,5.157 C92.669,3.121 92.866,1.517 92.977,0.35 L98.384,0 Z M94.609,39.445 L53.427,42.123 L53.77,47.389 C54.21,54.184 56.331,59.335 60.134,62.85 C63.936,66.362 69.696,67.867 77.415,67.367 C83.979,66.94 88.655,64.791 91.445,60.919 C94.234,57.047 95.408,51.715 94.966,44.92 L94.609,39.445 Z" id="path-41"></path>
        <path d="M52.9993159,-6.39488462e-14 C60.1093159,0.0140390422 66.7513159,1.33803904 72.9253159,3.97803904 C78.9983159,6.60503904 84.4433159,10.468039 89.2583159,15.558039 C94.0723159,20.649039 97.9123159,26.610039 100.773316,33.447039 C103.617316,40.242039 105.173316,47.083039 105.446316,53.976039 C105.720316,60.863039 104.779316,67.320039 102.630316,73.342039 C100.404316,79.549039 96.9373159,85.177039 92.2273159,90.235039 C87.5143159,95.297039 81.4413159,99.383039 74.0073159,102.491039 C67.3833159,105.265039 60.6163159,106.789039 53.7033159,107.072039 C46.7923159,107.354039 40.3003159,106.303039 34.2353159,103.922039 C27.9053159,101.398039 22.2503159,97.688039 17.2643159,92.796039 C12.2803159,87.905039 8.07131587,81.355039 4.63731587,73.147039 C1.86531587,66.524039 0.336315872,59.807039 0.0493158718,52.999039 C-0.240684128,46.194039 0.748315872,39.677039 3.01631587,33.461039 C5.21631587,27.315039 8.67631587,21.723039 13.3963159,16.684039 C18.1163159,11.649039 24.0453159,7.63303904 31.1803159,4.65003904 C38.6173159,1.53803904 45.8893159,-0.0089609578 52.9993159,-6.39488462e-14 Z M42.5493159,30.020039 C36.8563159,32.405039 31.6693159,35.087039 26.9863159,38.074039 C22.3033159,41.067039 18.4733159,44.291039 15.4943159,47.746039 C12.4883159,51.257039 10.5453159,54.935039 9.66031587,58.770039 C8.77531587,62.605039 9.23631587,66.681039 11.0433159,70.998039 C12.8123159,75.227039 15.4013159,78.409039 18.8103159,80.549039 C22.2203159,82.689039 26.1613159,83.875039 30.6363159,84.111039 C35.3353159,84.403039 40.3243159,83.949039 45.6023159,82.745039 C50.8823159,81.541039 56.6233159,79.641039 62.8303159,77.043039 C68.0923159,74.843039 73.0603159,72.323039 77.7333159,69.488039 C82.4053159,66.653039 86.3143159,63.522039 89.4593159,60.099039 C92.5843159,56.630039 94.6893159,52.887039 95.7723159,48.871039 C96.8563159,44.856039 96.4513159,40.576039 94.5573159,36.050039 C91.3213159,28.315039 85.1913159,23.975039 76.1723159,23.030039 C67.1523159,22.085039 55.9453159,24.415039 42.5493159,30.020039 Z" id="path-43"></path>
        <path d="M40.131,0 L76.946,37.565 L73.175,41.261 C70.741,39.306 68.867,37.908 67.552,37.064 C66.237,36.217 65.139,35.61 64.259,35.24 C63.411,34.906 62.774,34.818 62.348,34.98 C61.919,35.138 61.591,35.332 61.359,35.559 C60.896,36.013 60.505,36.509 60.19,37.046 C59.872,37.583 59.497,38.19 59.066,38.876 C57.266,42.197 53.948,48.593 49.112,58.066 C44.274,67.542 38.255,79.28 31.052,93.282 L98.041,59.089 L108.359,69.618 L73.636,139.995 L74.5387787,139.544202 L76.3167399,138.655337 C86.2876056,133.666532 94.4863243,129.495459 100.916,126.146 C107.912,122.496 113.881,119.356 118.818,116.72 C121.815,115.08 124.302,113.682 126.28,112.519 C128.255,111.361 129.824,110.212 130.981,109.077 C131.676,108.396 131.957,107.493 131.82,106.363 C131.686,105.233 131.266,103.945 130.563,102.495 C129.955,101.282 129.022,99.851 127.765,98.201 C126.507,96.557 125.395,95.14 124.427,93.954 L128.397,90.063 L156.168,118.397 L152.198,122.287 C151.094,121.361 149.864,120.555 148.511,119.87 C147.159,119.184 145.732,118.605 144.231,118.132 C141.878,117.452 139.875,117.294 138.216,117.651 C136.558,118.012 134.743,118.642 132.769,119.536 C125.956,122.649 115.154,127.739 100.36,134.812 C85.565,141.885 70.185,149.222 54.226,156.823 L44.399,146.8 L78.534,76.992 L9.815,111.509 L0,101.495 C10.663,80.216 18.893,63.846 24.693,52.392 C30.489,40.937 35.344,31.316 39.255,23.526 C40.425,21.149 41.027,19.162 41.059,17.573 C41.092,15.989 40.904,14.159 40.501,12.094 C40.221,10.616 39.728,9.236 39.019,7.948 C38.311,6.665 37.391,5.28 36.261,3.798 L40.131,0 Z" id="path-45"></path>
        <path d="M44.879,0 L93.566,24.892 L91.099,29.718 C89.797,29.209 88.162,28.593 86.192,27.87 C84.218,27.152 82.486,26.671 80.999,26.425 C79.116,26.142 77.615,26.43 76.501,27.286 C75.385,28.148 74.458,29.301 73.72,30.742 L41.933,92.914 C41.176,94.394 40.805,95.814 40.824,97.144 C40.842,98.484 41.465,99.884 42.697,101.344 C43.374,102.154 44.622,103.254 46.442,104.624 C48.263,105.994 49.833,107.074 51.153,107.854 L48.686,112.674 L0,87.784 L2.467,82.954 C3.623,83.454 5.325,84.164 7.576,85.104 C9.825,86.044 11.446,86.564 12.44,86.654 C14.28,86.814 15.74,86.534 16.812,85.804 C17.886,85.084 18.822,83.934 19.623,82.374 L51.443,20.135 C52.158,18.731 52.522,17.356 52.536,16.012 C52.547,14.665 51.938,13.261 50.708,11.797 C49.93,10.88 48.682,9.708 46.966,8.286 C45.247,6.86 43.73,5.711 42.413,4.826 L44.879,0 Z" id="path-47"></path>
        <path d="M18.182,0 L54.629,6.999 L94.994,82.638 L102.028,46.018 C103.144,40.198 103.589,35.791 103.361,32.8 C103.135,29.812 102.31,27.473 100.888,25.782 C99.77,24.485 97.986,23.211 95.538,21.965 C93.09,20.715 91.094,19.802 89.556,19.223 L90.577,13.901 L132.13,21.882 L131.109,27.204 C129.808,27.093 127.941,26.996 125.507,26.903 C123.07,26.815 120.761,27.292 118.582,28.334 C116.662,29.237 115.064,31.113 113.788,33.957 C112.51,36.801 111.317,41.118 110.208,46.888 L96.923,116.078 L84.776,113.748 L38.831,27.311 L30.105,72.758 C29.024,78.398 28.574,82.758 28.762,85.838 C28.949,88.908 29.753,91.298 31.175,92.978 C32.21,94.218 33.996,95.488 36.532,96.768 C39.066,98.058 41.103,98.998 42.644,99.568 L41.622,104.888 L-5.68434189e-14,96.898 L1.021,91.578 C2.823,91.778 4.921,91.838 7.318,91.768 C9.715,91.678 11.793,91.238 13.551,90.448 C15.577,89.468 17.175,87.708 18.347,85.178 C19.517,82.648 20.705,78.238 21.911,71.958 L30.714,26.107 C31.152,23.832 31.212,21.618 30.895,19.455 C30.578,17.296 29.811,15.346 28.588,13.6 C27.293,11.747 25.695,10.182 23.796,8.894 C21.897,7.611 19.676,6.467 17.133,5.457 L18.182,0 Z" id="path-49"></path>
        <path d="M85.0070312,0 L90.7370312,35.538 L84.6830312,36.408 C79.6620312,26.199 74.3490312,18.848 68.7450312,14.354 C63.1400312,9.861 56.6230312,8.143 49.1930312,9.213 C40.3920312,10.473 34.1480312,15.304 30.4620312,23.702 C26.7790312,32.098 25.9080312,43.068 27.8490312,56.598 C29.9150312,70.958 33.8750312,81.868 39.7440312,89.318 C45.6080312,96.758 52.8520312,99.868 61.4680312,98.628 C65.5060312,98.048 69.0040312,96.928 71.9730312,95.258 C74.9370312,93.598 77.1740312,91.838 78.6890312,89.978 L75.8450312,70.178 C75.6090312,68.518 75.1130312,67.178 74.3540312,66.138 C73.5940312,65.098 72.2640312,64.298 70.3610312,63.728 C68.8880312,63.288 67.0950312,63.008 64.9700312,62.888 C62.8480312,62.768 61.0880312,62.718 59.6890312,62.738 L58.9150312,57.368 L109.603031,50.098 L110.371031,55.458 C108.973031,55.798 107.731031,56.148 106.657031,56.478 C105.582031,56.828 104.262031,57.388 102.692031,58.178 C100.895031,59.048 99.8010312,60.208 99.4030312,61.668 C99.0050312,63.128 98.9120312,64.618 99.1300312,66.128 L100.756031,77.478 C101.089031,79.768 101.376031,81.608 101.622031,83.008 C101.868031,84.398 102.182031,86.118 102.571031,88.168 C98.3840312,91.578 91.9830312,95.138 83.3680312,98.858 C74.7520312,102.568 66.6830312,104.968 59.1650312,106.048 C52.1020312,107.058 45.3250312,106.938 38.8270312,105.668 C32.3240312,104.398 26.4320312,101.948 21.1330312,98.308 C15.8430312,94.708 11.4030312,89.938 7.81403119,83.988 C4.22103119,78.048 1.84103119,70.988 0.669031186,62.818 C-0.425968814,55.208 -0.176968814,47.978 1.41703119,41.148 C3.01003119,34.318 5.85403119,28.222 9.95103119,22.854 C13.9630312,17.55 19.1450312,13.155 25.5010312,9.667 C31.8560312,6.179 39.1140312,3.849 47.2750312,2.677 C52.8240312,1.881 58.0580312,1.835 62.9770312,2.529 C67.8970312,3.229 72.0050312,4.136 75.2990312,5.253 L79.0230312,0.857 L85.0070312,0 Z" id="path-51"></path>
        <path d="M58.034829,0 L77.868829,30.038 L72.708829,33.318 C63.879829,25.893 56.033829,21.311 49.168829,19.57 C42.304829,17.828 35.926829,18.834 30.029829,22.581 C22.692829,27.245 19.172829,34.035 19.459829,42.947 C19.756829,51.859 23.628829,62.17 31.066829,73.875 C35.273829,80.489 39.515829,85.723 43.805829,89.568 C48.084829,93.417 52.188829,96.099 56.116829,97.613 C60.266829,99.154 64.333829,99.634 68.298829,99.064 C72.272829,98.484 76.126829,97.011 79.878829,94.63 C85.344829,91.156 89.262829,86.571 91.652829,80.883 C94.043829,75.195 95.080829,68.224 94.765829,59.97 L101.741829,59.812 C102.250829,64.319 102.287829,68.618 101.871829,72.698 C101.444829,76.783 100.453829,80.697 98.878829,84.44 C97.155829,88.553 94.811829,92.402 91.856829,95.988 C88.892829,99.574 84.871829,102.984 79.785829,106.214 C73.690829,110.084 67.353829,112.724 60.785829,114.134 C54.208829,115.534 47.751829,115.614 41.414829,114.364 C35.208829,113.144 29.269829,110.534 23.591829,106.534 C17.917829,102.524 13.011829,97.275 8.88082901,90.781 C4.77682901,84.324 2.09882901,77.631 0.848829014,70.702 C-0.397170986,63.773 -0.272170986,57 1.22882901,50.386 C2.70182901,43.897 5.54582901,37.792 9.75082901,32.062 C13.961829,26.337 19.250829,21.45 25.619829,17.397 C30.233829,14.466 34.795829,12.363 39.311829,11.084 C43.823829,9.806 47.834829,9.037 51.345829,8.782 L52.929829,3.242 L58.034829,0 Z" id="path-53"></path>
        <path d="M35.193,-5.68434189e-14 L39.306,3.525 C38.444,4.743 37.462,6.198 36.342,7.893 C35.23,9.593 34.369,11.154 33.757,12.581 C33.034,14.346 32.969,15.869 33.544,17.157 C34.118,18.445 35.026,19.612 36.258,20.664 L85.514,62.805 C87.839,64.792 89.804,66.2 91.406,67.029 C93.018,67.858 94.528,68.085 95.945,67.71 C97.4,67.367 98.919,66.46 100.513,64.991 C102.106,63.518 104.144,61.341 106.608,58.456 C109.016,55.639 111.194,52.758 113.13,49.817 C115.066,46.871 115.974,44.337 115.844,42.211 C115.585,38.881 114.63,34.883 112.982,30.215 C111.342,25.546 109.647,21.493 107.896,18.046 L111.194,14.192 L133.957,36.222 L74.916,105.224 L70.803,101.699 C71.748,100.379 72.813,98.79 73.999,96.942 C75.185,95.089 75.898,93.811 76.139,93.102 C76.732,91.416 76.797,89.948 76.343,88.702 C75.88,87.456 74.972,86.247 73.592,85.071 L20.751,39.858 C19.481,38.774 18.268,38.075 17.11,37.751 C15.952,37.431 14.405,37.723 12.469,38.631 C11.051,39.302 9.532,40.275 7.92,41.549 C6.308,42.823 5.048,43.86 4.122,44.652 L-1.13686838e-13,41.127 L35.193,-5.68434189e-14 Z" id="path-55"></path>
        <path d="M43.679,0 L48.691,2.071 C48.302,3.363 47.848,5.272 47.338,7.791 C46.819,10.311 46.792,12.59 47.255,14.637 C47.653,16.703 49.108,18.644 51.609,20.455 C54.119,22.271 58.159,24.327 63.726,26.625 L97.626,40.641 C107.596,44.763 114.236,51.461 117.516,60.734 C120.796,70.012 120.136,80.216 115.536,91.342 C110.176,104.316 103.096,113.144 94.296,117.823 C85.496,122.506 75.856,122.682 65.366,118.346 L18.741,99.077 C17.249,98.461 15.841,98.22 14.535,98.355 C13.229,98.494 11.802,99.198 10.274,100.467 C9.264,101.352 8.245,102.533 7.235,104.02 C6.216,105.507 5.429,106.738 4.882,107.711 L0,105.692 L19.741,57.918 L24.624,59.938 C24.142,61.345 23.725,62.8 23.382,64.31 C23.03,65.82 22.789,67.4 22.659,69.049 C22.502,70.888 22.909,72.332 23.873,73.389 C24.846,74.436 26.078,75.274 27.578,75.89 L73.556,94.89 C82.586,98.623 89.976,99.355 95.736,97.076 C101.486,94.798 105.926,89.879 109.046,82.31 C112.116,74.871 112.266,68.099 109.476,61.994 C106.696,55.885 100.886,51.007 92.066,47.362 L61.179,34.601 C55.704,32.331 51.451,31.016 48.422,30.641 C45.393,30.265 42.957,30.599 41.122,31.646 C39.723,32.373 38.065,33.952 36.157,36.398 C34.239,38.839 32.97,40.585 32.34,41.623 L27.328,39.557 L43.679,0 Z" id="path-57"></path>
        <path d="M77.978,0.0563246484 C82.968,0.376324648 87.118,1.69632465 90.428,4.02132465 C93.738,6.34632465 96.258,9.53732465 97.988,13.5903246 C99.858,17.8893246 101.048,22.7803246 101.578,28.2693246 C102.108,33.7583246 102.138,40.1783246 101.658,47.5243246 L98.378,98.6233246 L92.978,98.2813246 C92.938,96.8363246 92.838,95.0203246 92.708,92.8333246 C92.568,90.6383246 92.338,89.0953246 92.028,88.1923246 C91.448,86.4423246 90.598,85.2093246 89.508,84.5143246 C88.418,83.8203246 86.968,83.4123246 85.158,83.2963246 L15.831,78.8453246 C14.164,78.7433246 12.765,78.9053246 11.616,79.3453246 C10.477,79.7813246 9.43,80.9433246 8.476,82.8293246 C7.781,84.2283246 7.179,85.8583246 6.66,87.7293246 C6.151,89.6013246 5.725,91.2403246 5.41,92.6573246 L0,92.3153246 L3.427,38.8533246 C4.289,25.4023246 6.762,15.8143246 10.848,10.0893246 C14.923,4.36432465 20.568,1.73332465 27.778,2.19632465 C31.108,2.40932465 33.988,3.26632465 36.428,4.77132465 C38.848,6.27232465 40.918,8.32832465 42.608,10.9413246 C44.168,13.3223246 45.478,16.1193246 46.518,19.3433246 C47.568,22.5673246 48.398,26.0043246 48.998,29.6633246 L50.308,29.7473246 C50.918,26.1663246 51.948,22.4743246 53.428,18.6673246 C54.898,14.8693246 56.698,11.5943246 58.828,8.85232465 C61.048,6.02232465 63.758,3.78532465 66.948,2.13132465 C70.138,0.482324648 73.818,-0.212675352 77.978,0.0563246484 Z M59.198,32.5443246 C55.278,36.3803246 53.068,42.1093246 52.578,49.7383246 C52.528,50.6183246 52.478,51.7853246 52.458,53.2453246 C52.4372308,54.2554016 52.4308402,55.0833483 52.4288739,55.7291649 L52.428,56.4823246 L88.468,58.7943246 C90.208,58.4883246 91.738,57.2883246 93.058,55.1853246 C94.378,53.0913246 95.138,50.4983246 95.338,47.3993246 C95.688,41.9013246 94.128,37.3063246 90.648,33.6283246 C87.168,29.9413246 82.058,27.8853246 75.348,27.4583246 C68.498,27.0143246 63.118,28.7143246 59.198,32.5443246 Z M14.729,33.0723246 C11.477,35.9493246 9.662,40.4653246 9.263,46.6073246 C9.208,47.4873246 9.171,48.6363246 9.152,50.0483246 C9.124,51.4613246 9.106,52.6793246 9.087,53.6993246 L45.558,56.0373246 L45.788,52.4343246 C46.268,44.9483246 44.878,39.3123246 41.618,35.5273246 C38.358,31.7433246 33.748,29.6633246 27.778,29.2793246 C22.328,28.9273246 17.981,30.1913246 14.729,33.0723246 Z" id="path-59"></path>
        <path d="M160.844,0 L161.173,21.199 L214.438,33.433 C214.438,33.433 238.154,102.032 200.047,179.951 C200.047,179.951 206.819,140.144 198.352,126.591 C194.60392,120.59349 179.735343,124.89319 164.325061,131.539804 L163.37125,131.953859 L162.894,132.163 L164.001,203.588 C179.56998,204.21044 194.694608,204.39823 207.001772,204.406678 L208.740516,204.406693 C224.78512,204.395955 235.62,204.088 235.62,204.088 L250.924,172.466 L327.267,170.544 L327.267,188.191 C306.164,193.949 301.57,219.332 299.258,227.72 C296.473342,237.838356 294.093264,240.540968 293.902344,240.746012 L293.89,240.759 C283.144,244.215 245.931,248.036 159.223,249.203 C72.516,250.347 5.68434189e-14,242.672 5.68434189e-14,242.672 C5.68434189e-14,242.672 2.1251808,231.149426 4.20222427,219.642768 L4.43269837,218.364902 L4.66211378,217.090684 C6.2627704,208.192137 7.73692,199.82026 8.062,197.404 C8.829,191.647 1.154,190.493 1.154,190.493 L3.46,147.527 C64.456,162.493 108.198,164.786 108.198,164.786 L107.431,183.971 C107.51372,198.90196 122.862397,200.734434 124.703941,200.900579 L124.802865,200.909031 C124.856216,200.913304 124.884,200.915 124.884,200.915 C132.703,201.74 140.971,202.374 149.322,202.87 L150.745,137.865 C136.508,144.934 124.671,151.997 124.671,151.997 C124.671,151.997 137.372,92.722 89.103,4.641 L153.334,19.397 L153.757,0 L160.844,0 Z" id="path-61"></path>
        <path d="M5.68434189e-14,0 C24.56,16.096 119.411,132.969 119.411,132.969 C88.924,121.112 29.639,138.894 29.639,138.894 C20.322,27.954 5.68434189e-14,0 5.68434189e-14,0 Z" id="path-63"></path>
        <path d="M4.798,-1.13686838e-13 L98.808,17.782 C98.808,17.782 100.216,74.236 81.587,108.957 C81.587,108.957 79.863,95.969 69.168,94.848 C59.705,93.857 28.801,93.153 0,104.167 C0,104.167 31.056,42.34 4.798,-1.13686838e-13 Z" id="path-65"></path>
        <path d="M341.383,-5.68434189e-14 L342.911,11.024 C276.823,20.209 215.991,23.242 164.505,23.242 C65.46,23.242 0.968,12.029 5.68434189e-14,11.857 L1.954,0.898 C3.413,1.162 150.017,26.596 341.383,-5.68434189e-14 Z" id="path-67"></path>
        <path d="M286.474,0 L287.752,11.061 C232.34,17.472 181.528,19.727 137.469,19.727 C77.187,19.727 29.545,15.503 0,11.927 L1.338,0.875 C51.989,7.012 156.383,15.058 286.474,0 Z" id="path-69"></path>
        <path d="M77.919,0 L75.501,15.364 L71.657,15.364 L72.398,25.471 C93.369,37.715 131.404,56.806 180.954,68.37 C248.545,84.149 351.412,88.512 464.839,24.17 L465.339,15.364 L461.665,15.364 L459.345,0 L524.169,0 L521.751,15.364 L517.902,15.364 L524.146,100.613 L537.546,100.613 L537.546,136.761 L446.241,136.761 L446.241,111.47 L91.305,111.47 L91.305,136.761 L0,136.761 L0,100.613 L14.244,100.613 L19.098,15.364 L15.415,15.364 L13.097,0 L77.919,0 Z M73.352,38.503 L76.728,84.582 L208.264,84.582 C197.571,82.944 187.473,80.95 178.05,78.739 C131.726,67.872 95.685,50.956 73.352,38.503 Z M464.116,36.852 C415.425,63.55 368.703,78.037 325.811,84.582 L461.397,84.582 L464.116,36.852 Z" id="path-71"></path>
    </defs>
    <g id="Page-1" stroke="none" stroke-width="1" fill="none" fill-rule="evenodd">
        <g id="cobrc-logo-green">
            <g id="Group-3">
                <mask id="mask-2" fill="white">
                    <use xlink:href="#path-1"></use>
                </mask>
                <g id="Clip-2"></g>
                <polygon id="Fill-1" fill="#00491E" mask="url(#mask-2)" points="0 241.719699 244.32 241.719699 244.32 -0.0803013523 0 -0.0803013523"></polygon>
            </g>
            <g id="Group-6" transform="translate(1057.640000, 115.306699)">
                <mask id="mask-4" fill="white">
                    <use xlink:href="#path-3"></use>
                </mask>
                <g id="Clip-5"></g>
                <polygon id="Fill-4" fill="#00491E" mask="url(#mask-4)" points="-0.08 126.413 237.52 126.413 237.52 -0.067 -0.08 -0.067"></polygon>
            </g>
            <g id="Group-9" transform="translate(1057.780000, 0.000000)">
                <mask id="mask-6" fill="white">
                    <use xlink:href="#path-5"></use>
                </mask>
                <g id="Clip-8"></g>
                <polygon id="Fill-7" fill="#00491E" mask="url(#mask-6)" points="-0.1 223.599699 244.1 223.599699 244.1 -0.0803013523 -0.1 -0.0803013523"></polygon>
            </g>
            <polygon id="Fill-10" fill="#00491E" points="271.2 248.919699 271.56 248.919699 271.56 248.559699 271.2 248.559699"></polygon>
            <g id="Group-13" transform="translate(977.957000, 971.455699)">
                <mask id="mask-8" fill="white">
                    <use xlink:href="#path-7"></use>
                </mask>
                <g id="Clip-12"></g>
                <polygon id="Fill-11" fill="#00491E" mask="url(#mask-8)" points="-0.077 272.864 272.923 272.864 272.923 -0.016 -0.077 -0.016"></polygon>
            </g>
            <g id="Group-16" transform="translate(229.506000, 223.490699)">
                <mask id="mask-10" fill="white">
                    <use xlink:href="#path-9"></use>
                </mask>
                <g id="Clip-15"></g>
                <polygon id="Fill-14" fill="#00491E" mask="url(#mask-10)" points="-0.066 89.149 89.574 89.149 89.574 -0.011 -0.066 -0.011"></polygon>
            </g>
            <polygon id="Fill-17" fill="#00491E" points="1030.32 248.919699 1030.68 248.919699 1030.68 248.559699 1030.32 248.559699"></polygon>
            <g id="Group-20" transform="translate(51.046000, 973.841699)">
                <mask id="mask-12" fill="white">
                    <use xlink:href="#path-11"></use>
                </mask>
                <g id="Clip-19"></g>
                <polygon id="Fill-18" fill="#00491E" mask="url(#mask-12)" points="-0.046 270.478 270.674 270.478 270.674 -0.002 -0.046 -0.002"></polygon>
            </g>
            <g id="Group-23" transform="translate(980.509000, 223.490699)">
                <mask id="mask-14" fill="white">
                    <use xlink:href="#path-13"></use>
                </mask>
                <g id="Clip-22"></g>
                <polygon id="Fill-21" fill="#00491E" mask="url(#mask-14)" points="-0.109 91.549 91.931 91.549 91.931 -0.011 -0.109 -0.011"></polygon>
            </g>
            <g id="Group-26" transform="translate(390.868000, 26.485699)">
                <mask id="mask-16" fill="white">
                    <use xlink:href="#path-15"></use>
                </mask>
                <g id="Clip-25"></g>
                <polygon id="Fill-24" fill="#00491E" mask="url(#mask-16)" points="-0.028 83.234 76.052 83.234 76.052 -0.046 -0.028 -0.046"></polygon>
            </g>
            <g id="Group-29" transform="translate(475.007000, 28.652699)">
                <mask id="mask-18" fill="white">
                    <use xlink:href="#path-17"></use>
                </mask>
                <g id="Clip-28"></g>
                <polygon id="Fill-27" fill="#00491E" mask="url(#mask-18)" points="-0.047 78.907 43.753 78.907 43.753 -0.053 -0.047 -0.053"></polygon>
            </g>
            <g id="Group-32" transform="translate(528.427000, 28.652699)">
                <mask id="mask-20" fill="white">
                    <use xlink:href="#path-19"></use>
                </mask>
                <g id="Clip-31"></g>
                <polygon id="Fill-30" fill="#00491E" mask="url(#mask-20)" points="-0.067 78.907 76.493 78.907 76.493 -0.053 -0.067 -0.053"></polygon>
            </g>
            <g id="Group-35" transform="translate(611.098000, 28.652699)">
                <mask id="mask-22" fill="white">
                    <use xlink:href="#path-21"></use>
                </mask>
                <g id="Clip-34"></g>
                <polygon id="Fill-33" fill="#00491E" mask="url(#mask-22)" points="-0.058 78.907 90.542 78.907 90.542 -0.053 -0.058 -0.053"></polygon>
            </g>
            <g id="Group-38" transform="translate(738.629000, 26.485699)">
                <mask id="mask-24" fill="white">
                    <use xlink:href="#path-23"></use>
                </mask>
                <g id="Clip-37"></g>
                <polygon id="Fill-36" fill="#00491E" mask="url(#mask-24)" points="-0.029 83.234 85.531 83.234 85.531 -0.046 -0.029 -0.046"></polygon>
            </g>
            <g id="Group-41" transform="translate(832.408000, 28.652699)">
                <mask id="mask-26" fill="white">
                    <use xlink:href="#path-25"></use>
                </mask>
                <g id="Clip-40"></g>
                <polygon id="Fill-39" fill="#00491E" mask="url(#mask-26)" points="-0.088 78.907 70.952 78.907 70.952 -0.053 -0.088 -0.053"></polygon>
            </g>
            <g id="Group-44" transform="translate(287.335000, 339.577417)">
                <mask id="mask-28" fill="white">
                    <use xlink:href="#path-27"></use>
                </mask>
                <g id="Clip-43"></g>
                <polygon id="Fill-42" fill="#00491E" mask="url(#mask-28)" points="-0.055 124.382282 126.305 124.382282 126.305 -0.0577184847 -0.055 -0.0577184847"></polygon>
            </g>
            <g id="Group-47" transform="translate(383.779000, 259.143132)">
                <mask id="mask-30" fill="white">
                    <use xlink:href="#path-29"></use>
                </mask>
                <g id="Clip-46"></g>
                <polygon id="Fill-45" fill="#00491E" mask="url(#mask-30)" points="-0.019 122.496566 147.701 122.496566 147.701 -0.0234337282 -0.019 -0.0234337282"></polygon>
            </g>
            <g id="Group-50" transform="translate(522.036000, 215.331699)">
                <mask id="mask-32" fill="white">
                    <use xlink:href="#path-31"></use>
                </mask>
                <g id="Clip-49"></g>
                <polygon id="Fill-48" fill="#00491E" mask="url(#mask-32)" points="-0.036 108.588 76.044 108.588 76.044 -0.012 -0.036 -0.012"></polygon>
            </g>
            <g id="Group-53" transform="translate(618.210000, 207.433807)">
                <mask id="mask-34" fill="white">
                    <use xlink:href="#path-33"></use>
                </mask>
                <g id="Clip-52"></g>
                <polygon id="Fill-51" fill="#00491E" mask="url(#mask-34)" points="-0.09 104.125891 82.59 104.125891 82.59 -0.0341087617 -0.09 -0.0341087617"></polygon>
            </g>
            <g id="Group-56" transform="translate(721.269000, 215.183699)">
                <mask id="mask-36" fill="white">
                    <use xlink:href="#path-35"></use>
                </mask>
                <g id="Clip-55"></g>
                <polygon id="Fill-54" fill="#00491E" mask="url(#mask-36)" points="-0.069 116.536 101.091 116.536 101.091 -0.104 -0.069 -0.104"></polygon>
            </g>
            <g id="Group-59" transform="translate(809.612585, 272.174720)">
                <mask id="mask-38" fill="white">
                    <use xlink:href="#path-37"></use>
                </mask>
                <g id="Clip-58"></g>
                <polygon id="Fill-57" fill="#00491E" mask="url(#mask-38)" points="-0.0925853374 106.584979 107.787415 106.584979 107.787415 -0.0950214039 -0.0925853374 -0.0950214039"></polygon>
            </g>
            <g id="Group-62" transform="translate(880.608000, 336.748699)">
                <mask id="mask-40" fill="white">
                    <use xlink:href="#path-39"></use>
                </mask>
                <g id="Clip-61"></g>
                <polygon id="Fill-60" fill="#00491E" mask="url(#mask-40)" points="-0.048 132.611 110.832 132.611 110.832 -0.109 -0.048 -0.109"></polygon>
            </g>
            <g id="Group-65" transform="translate(211.821000, 612.323699)">
                <mask id="mask-42" fill="white">
                    <use xlink:href="#path-41"></use>
                </mask>
                <g id="Clip-64"></g>
                <polygon id="Fill-63" fill="#00491E" mask="url(#mask-42)" points="-0.021 119.356 102.219 119.356 102.219 -0.044 -0.021 -0.044"></polygon>
            </g>
            <g id="Group-68" transform="translate(240.424684, 736.922660)">
                <mask id="mask-44" fill="white">
                    <use xlink:href="#path-43"></use>
                </mask>
                <g id="Clip-67"></g>
                <polygon id="Fill-66" fill="#00491E" mask="url(#mask-44)" points="-0.0646841282 107.197039 105.535316 107.197039 105.535316 -0.0829609578 -0.0646841282 -0.0829609578"></polygon>
            </g>
            <g id="Group-71" transform="translate(310.567000, 817.629699)">
                <mask id="mask-46" fill="white">
                    <use xlink:href="#path-45"></use>
                </mask>
                <g id="Clip-70"></g>
                <polygon id="Fill-69" fill="#00491E" mask="url(#mask-46)" points="-0.007 156.93 156.233 156.93 156.233 -0.03 -0.007 -0.03"></polygon>
            </g>
            <g id="Group-74" transform="translate(426.835000, 928.675699)">
                <mask id="mask-48" fill="white">
                    <use xlink:href="#path-47"></use>
                </mask>
                <g id="Clip-73"></g>
                <polygon id="Fill-72" fill="#00491E" mask="url(#mask-48)" points="-0.115 112.724 93.605 112.724 93.605 -0.076 -0.115 -0.076"></polygon>
            </g>
            <g id="Group-77" transform="translate(509.893000, 960.741699)">
                <mask id="mask-50" fill="white">
                    <use xlink:href="#path-49"></use>
                </mask>
                <g id="Clip-76"></g>
                <polygon id="Fill-75" fill="#00491E" mask="url(#mask-50)" points="-0.013 116.178 132.227 116.178 132.227 -0.102 -0.013 -0.102"></polygon>
            </g>
            <g id="Group-80" transform="translate(651.398969, 968.551699)">
                <mask id="mask-52" fill="white">
                    <use xlink:href="#path-51"></use>
                </mask>
                <g id="Clip-79"></g>
                <polygon id="Fill-78" fill="#00491E" mask="url(#mask-52)" points="-0.0389688135 106.808 110.481031 106.808 110.481031 -0.112 -0.0389688135 -0.112"></polygon>
            </g>
            <g id="Group-83" transform="translate(807.658171, 901.805699)">
                <mask id="mask-54" fill="white">
                    <use xlink:href="#path-53"></use>
                </mask>
                <g id="Clip-82"></g>
                <polygon id="Fill-81" fill="#00491E" mask="url(#mask-54)" points="-0.0581709857 115.354 102.181829 115.354 102.181829 -0.086 -0.0581709857 -0.086"></polygon>
            </g>
            <g id="Group-86" transform="translate(875.263000, 852.303699)">
                <mask id="mask-56" fill="white">
                    <use xlink:href="#path-55"></use>
                </mask>
                <g id="Clip-85"></g>
                <polygon id="Fill-84" fill="#00491E" mask="url(#mask-56)" points="-0.103 105.336 134.057 105.336 134.057 -0.024 -0.103 -0.024"></polygon>
            </g>
            <g id="Group-89" transform="translate(937.914000, 715.485699)">
                <mask id="mask-58" fill="white">
                    <use xlink:href="#path-57"></use>
                </mask>
                <g id="Clip-88"></g>
                <polygon id="Fill-87" fill="#00491E" mask="url(#mask-58)" points="-0.114 121.554 119.646 121.554 119.646 -0.006 -0.114 -0.006"></polygon>
            </g>
            <g id="Group-92" transform="translate(980.482000, 620.558374)">
                <mask id="mask-60" fill="white">
                    <use xlink:href="#path-59"></use>
                </mask>
                <g id="Clip-91"></g>
                <polygon id="Fill-90" fill="#00491E" mask="url(#mask-60)" points="-0.082 98.6413246 102.038 98.6413246 102.038 0.00132464841 -0.082 0.00132464841"></polygon>
            </g>
            <g id="Group-95" transform="translate(500.448000, 594.244699)">
                <mask id="mask-62" fill="white">
                    <use xlink:href="#path-61"></use>
                </mask>
                <g id="Clip-94"></g>
                <polygon id="Fill-93" fill="#00491E" mask="url(#mask-62)" points="-0.048 249.395 327.312 249.395 327.312 -0.085 -0.048 -0.085"></polygon>
            </g>
            <g id="Group-98" transform="translate(500.627000, 600.576699)">
                <mask id="mask-64" fill="white">
                    <use xlink:href="#path-63"></use>
                </mask>
                <g id="Clip-97"></g>
                <polygon id="Fill-96" fill="#00491E" mask="url(#mask-64)" points="-0.107 138.903 119.413 138.903 119.413 -0.057 -0.107 -0.057"></polygon>
            </g>
            <g id="Group-101" transform="translate(741.423000, 645.469699)">
                <mask id="mask-66" fill="white">
                    <use xlink:href="#path-65"></use>
                </mask>
                <g id="Clip-100"></g>
                <polygon id="Fill-99" fill="#00491E" mask="url(#mask-66)" points="-0.063 109.01 98.937 109.01 98.937 -0.07 -0.063 -0.07"></polygon>
            </g>
            <g id="Group-104" transform="translate(474.137000, 844.337699)">
                <mask id="mask-68" fill="white">
                    <use xlink:href="#path-67"></use>
                </mask>
                <g id="Clip-103"></g>
                <polygon id="Fill-102" fill="#00491E" mask="url(#mask-68)" points="-0.017 23.302 342.943 23.302 342.943 -0.098 -0.017 -0.098"></polygon>
            </g>
            <g id="Group-107" transform="translate(500.388000, 868.761699)">
                <mask id="mask-70" fill="white">
                    <use xlink:href="#path-69"></use>
                </mask>
                <g id="Clip-106"></g>
                <polygon id="Fill-105" fill="#00491E" mask="url(#mask-70)" points="-0.108 19.758 287.772 19.758 287.772 -0.042 -0.108 -0.042"></polygon>
            </g>
            <g id="Group-110" transform="translate(380.937000, 472.415699)">
                <mask id="mask-72" fill="white">
                    <use xlink:href="#path-71"></use>
                </mask>
                <g id="Clip-109"></g>
                <polygon id="Fill-108" fill="#00491E" mask="url(#mask-72)" points="-0.057 136.864 537.663 136.864 537.663 -0.056 -0.057 -0.056"></polygon>
            </g>
        </g>
    </g>
</svg>